{"title":"Glory 31 Super Fight Series 720p WEB-DL x264 - TX [TJET]","uid":15095723,"size":2602743757,"categoryP":"video","categoryS":"hd___tv_shows","magnet":"?xt=urn:btih:3cb62861863b766daa704cb41ca6b2bb74f5ce27&amp;dn=Glory+31+Super+Fight+Series+720p+WEB-DL+x264+-+TX+%5BTJET%5D&amp;tr=udp%3A%2F%2Ftracker.leechers-paradise.org%3A6969&amp;tr=udp%3A%2F%2Fzer0day.ch%3A1337&amp;tr=udp%3A%2F%2Fopen.demonii.com%3A1337&amp;tr=udp%3A%2F%2Ftracker.coppersurfer.tk%3A6969&amp;tr=udp%3A%2F%2Fexodus.desync.com%3A6969","seeders":2,"leechers":1,"uploader":"CenaCme","files":2,"time":1466918056,"description":"Glory 31 Super Fight Series 720p WEB-DL x264 - TX\r\n\r\nZack Mwekassa (CON) vs. Mourad Bouzidi (TUN)\r\nSaenchai Sor Kingstar (THA) vs. Eddy Nait Slimani (FRA)\r\nJosh Jauncey (CAN) vs. Anatoly Moiseev (RUS)\r\nIsis Verbeek (NLD) vs. Irina Mazepa (RUS)\r\nMaximo Suarez (SPA) vs. Eyevan Danenberg (NLD)\r\n\r\nVideo\r\nID                          : 1\r\nFormat                      : AVC\r\nFormat/Info                 : Advanced Video Codec\r\nFormat profile              :   \r\nFormat settings, CABAC      : Yes\r\nFormat settings, ReFrames   : 3 frames\r\nCodec ID                    : avc1\r\nCodec ID/Info               : Advanced Video Coding\r\nDuration                    : 1h 59mn\r\nBit rate                    : 2 777 Kbps\r\nWidth                       : 1 280 pixels\r\nHeight                      : 720 pixels\r\nDisplay aspect ratio        : 16:9\r\nFrame rate mode             : Constant\r\nFrame rate                  : 29.970 (30000/1001) fps\r\nOriginal frame rate         : 29.970 (29970/1000) fps\r\nColor space                 : YUV\r\nChroma subsampling          : 4:2:0\r\nBit depth                   : 8 bits\r\nScan type                   : Progressive\r\nBits/(Pixel*Frame)          : 0.101\r\nStream size                 : 2.31 GiB (95%)\r\n\r\nAudio\r\nID                          : 2\r\nFormat                      : AAC\r\nFormat/Info                 : Advanced Audio Codec\r\nFormat profile              : LC\r\nCodec ID                    : 40\r\nDuration                    : 1h 59mn\r\nBit rate mode               : Constant\r\nBit rate                    : 126 Kbps\r\nChannel(s)                  : 2 channels\r\nChannel positions           : Front: L R\r\nSampling rate               : 44.1 KHz\r\nFrame rate                  : 43.066 fps (1024 spf)\r\nCompression mode            : Lossy\r\nStream size                 : 107 MiB (4%)\r\nDefault                     : Yes\r\nAlternate group             : 1\r\n\r\n\r\nThumb sheet:\r\n \nhttps://extraimago.com/image/a5C0","torrent":{"xt":"urn:btih:3cb62861863b766daa704cb41ca6b2bb74f5ce27","amp;dn":"Glory+31+Super+Fight+Series+720p+WEB-DL+x264+-+TX+%5BTJET%5D","amp;tr":["udp%3A%2F%2Ftracker.leechers-paradise.org%3A6969","udp%3A%2F%2Fzer0day.ch%3A1337","udp%3A%2F%2Fopen.demonii.com%3A1337","udp%3A%2F%2Ftracker.coppersurfer.tk%3A6969","udp%3A%2F%2Fexodus.desync.com%3A6969"],"infoHash":"3cb62861863b766daa704cb41ca6b2bb74f5ce27","infoHashBuffer":{"type":"Buffer","data":[60,182,40,97,134,59,118,109,170,112,76,180,28,166,178,187,116,245,206,39]},"announce":[],"urlList":[]}}